<?xml version="1.0" standalone="no"?>
<!DOCTYPE svg PUBLIC "-//W3C//DTD SVG 20010904//EN"
 "http://www.w3.org/TR/2001/REC-SVG-20010904/DTD/svg10.dtd">
<svg version="1.0" xmlns="http://www.w3.org/2000/svg"
 width="260.000000pt" height="260.000000pt" viewBox="0 0 260.000000 260.000000"
 preserveAspectRatio="xMidYMid meet">
<metadata>
Created by potrace 1.11, written by Peter Selinger 2001-2013
</metadata>
<g transform="translate(0.000000,260.000000) scale(0.100000,-0.100000)"
fill="#000000" stroke="none">
<path d="M1155 2432 c-3 -3 -18 -7 -33 -8 -84 -6 -247 -59 -355 -117 -175 -93
-343 -251 -440 -412 -50 -84 -104 -204 -108 -240 0 -5 -5 -18 -11 -29 -6 -10
-12 -28 -14 -40 -2 -11 -8 -43 -14 -71 -6 -27 -13 -87 -15 -133 -3 -45 -6 -85
-6 -90 -1 -4 -1 -9 0 -12 1 -3 4 -32 6 -65 8 -127 36 -251 80 -350 7 -16 16
-40 20 -52 3 -13 11 -23 16 -23 5 0 9 -8 9 -19 0 -10 7 -24 15 -31 8 -7 13
-16 10 -20 -3 -5 -2 -10 2 -12 9 -3 73 -93 73 -101 0 -3 20 -27 45 -52 25 -26
42 -51 39 -56 -3 -5 -1 -8 4 -7 5 2 31 -16 58 -39 27 -24 68 -57 91 -74 24
-17 43 -35 43 -40 0 -6 4 -8 9 -4 5 3 15 -1 23 -8 15 -15 49 -31 61 -29 9 2 9
-15 0 -21 -5 -2 -2 -2 5 -1 15 4 94 -26 103 -39 3 -5 10 -8 15 -8 9 1 63 -14
94 -26 24 -10 44 -14 68 -15 12 0 22 -3 22 -7 0 -7 57 -12 157 -15 35 0 63 -3
63 -6 0 -3 27 -3 61 0 33 3 63 2 66 -3 2 -4 10 -4 16 2 7 5 28 10 47 12 19 2
40 5 45 8 6 3 19 7 30 9 28 5 50 10 53 12 1 2 5 3 10 4 4 1 31 10 59 20 29 9
57 15 63 11 5 -3 10 1 10 10 0 9 4 14 9 10 5 -3 16 2 25 10 8 9 18 16 21 15 7
0 79 34 85 40 3 3 30 22 60 42 30 20 67 48 83 63 15 14 27 24 27 22 0 -3 20
16 45 41 25 24 45 48 45 52 0 4 13 18 29 31 16 13 27 27 25 31 -3 4 -1 8 4 8
5 0 17 15 27 34 11 19 23 33 27 30 4 -3 8 3 9 13 0 10 9 32 19 48 26 42 61
112 64 127 1 7 8 23 14 35 7 13 10 23 6 23 -3 0 -2 6 3 13 21 25 53 182 59
282 3 44 6 85 6 90 1 13 -11 141 -18 185 -3 19 -7 45 -9 57 -5 34 -46 156 -58
171 -5 6 -7 12 -4 12 9 0 -54 123 -98 190 -112 171 -258 303 -437 395 -49 24
-88 42 -88 38 0 -3 -6 -1 -12 4 -19 15 -133 50 -208 64 -65 13 -345 21 -355
11z"/>
</g>
</svg>
